<?xml version="1.0" encoding="UTF-8"?>
<svg xmlns="http://www.w3.org/2000/svg" xmlns:xlink="http://www.w3.org/1999/xlink" width="700px" height="477px" viewBox="0 0 699 477" version="1.1">
  <g id="surface1">
    <path style=" stroke:none;fill-rule:nonzero;fill:rgb(47.058824%,60.392157%,23.921569%);fill-opacity:1;" d="M 113.910156 277.386719 C 49.707031 277.386719 15.535156 245.757812 15.535156 179.910156 L 15.535156 16.589844 L 93.71875 16.589844 L 93.71875 194.429688 C 93.71875 209.464844 97.859375 220.871094 113.910156 220.871094 C 128.410156 220.871094 134.105469 209.464844 134.105469 194.429688 L 134.105469 16.589844 L 212.289062 16.589844 L 212.289062 179.394531 C 212.289062 243.167969 176.042969 277.386719 113.910156 277.386719 "></path>
    <path style=" stroke:none;fill-rule:nonzero;fill:rgb(47.058824%,60.392157%,23.921569%);fill-opacity:1;" d="M 354.679688 188.207031 L 336.039062 188.207031 L 336.039062 273.238281 L 258.890625 273.238281 L 258.890625 16.589844 L 357.785156 16.589844 C 410.597656 16.589844 449.429688 46.144531 449.429688 102.140625 C 449.949219 161.246094 408.527344 188.207031 354.679688 188.207031 M 346.394531 72.070312 L 335.519531 72.070312 L 335.519531 132.730469 L 346.394531 132.730469 C 363.996094 132.730469 371.246094 116.140625 371.246094 102.140625 C 371.765625 86.585938 361.925781 72.070312 346.394531 72.070312 "></path>
    <path style=" stroke:none;fill-rule:nonzero;fill:rgb(47.058824%,60.392157%,23.921569%);fill-opacity:1;" d="M 601.140625 273.238281 L 589.75 221.910156 L 527.617188 221.910156 L 516.742188 273.238281 L 438.039062 273.238281 L 515.1875 16.589844 L 605.28125 16.589844 L 681.914062 272.71875 L 601.140625 272.71875 Z M 557.128906 78.808594 L 538.488281 168.503906 L 577.320312 168.503906 Z M 557.128906 78.808594 "></path>
    <path style=" stroke:none;fill-rule:nonzero;fill:rgb(7.45098%,9.019608%,9.411765%);fill-opacity:1;" d="M 25.371094 349.972656 C 17.085938 349.972656 15.535156 343.75 15.535156 337.011719 L 15.535156 315.753906 L 18.121094 315.753906 L 18.121094 337.011719 C 18.121094 342.195312 19.15625 347.378906 25.371094 347.378906 C 31.066406 347.378906 32.101562 342.195312 32.101562 337.011719 L 32.101562 315.753906 L 34.691406 315.753906 L 34.691406 337.011719 C 34.691406 343.75 32.621094 349.972656 25.371094 349.972656 "></path>
    <path style=" stroke:none;fill-rule:nonzero;fill:rgb(7.45098%,9.019608%,9.411765%);fill-opacity:1;" d="M 59.542969 349.453125 L 45.5625 319.382812 L 45.5625 349.453125 L 42.976562 349.453125 L 42.976562 315.753906 L 47.117188 315.753906 L 60.578125 345.824219 L 60.578125 315.753906 L 63.167969 315.753906 L 63.167969 349.453125 Z M 59.542969 349.453125 "></path>
    <path style=" stroke:none;fill-rule:nonzero;fill:rgb(7.45098%,9.019608%,9.411765%);fill-opacity:1;" d="M 71.972656 315.753906 L 74.558594 315.753906 L 74.558594 348.9375 L 71.972656 348.9375 Z M 71.972656 315.753906 "></path>
    <path style=" stroke:none;fill-rule:nonzero;fill:rgb(7.45098%,9.019608%,9.411765%);fill-opacity:1;" d="M 92.164062 349.453125 L 89.058594 349.453125 L 79.738281 315.753906 L 82.328125 315.753906 L 91.128906 345.824219 L 99.414062 315.753906 L 102.003906 315.753906 Z M 92.164062 349.453125 "></path>
    <path style=" stroke:none;fill-rule:nonzero;fill:rgb(7.45098%,9.019608%,9.411765%);fill-opacity:1;" d="M 106.664062 349.453125 L 106.664062 315.753906 L 120.640625 315.753906 L 120.640625 318.34375 L 109.25 318.34375 L 109.25 330.789062 L 120.125 330.789062 L 120.125 333.382812 L 109.25 333.382812 L 109.25 346.863281 L 121.160156 346.863281 L 121.160156 349.453125 Z M 106.664062 349.453125 "></path>
    <path style=" stroke:none;fill-rule:nonzero;fill:rgb(7.45098%,9.019608%,9.411765%);fill-opacity:1;" d="M 142.90625 349.453125 L 138.765625 338.046875 C 137.730469 335.972656 137.210938 333.898438 134.621094 333.898438 L 130.480469 333.898438 L 130.480469 349.453125 L 127.890625 349.453125 L 127.890625 316.273438 L 135.65625 316.273438 C 140.835938 316.273438 144.460938 319.382812 144.460938 325.085938 C 144.460938 329.234375 142.390625 332.34375 137.730469 333.382812 C 139.800781 333.898438 140.316406 334.417969 140.835938 336.492188 L 146.011719 350.492188 L 142.90625 350.492188 Z M 134.621094 318.34375 L 130.480469 318.34375 L 130.480469 330.789062 L 134.621094 330.789062 C 138.765625 330.789062 140.835938 328.714844 140.835938 324.050781 C 140.835938 320.417969 138.765625 318.34375 134.621094 318.34375 "></path>
    <path style=" stroke:none;fill-rule:nonzero;fill:rgb(7.45098%,9.019608%,9.411765%);fill-opacity:1;" d="M 156.367188 349.972656 C 154.296875 349.972656 151.707031 349.453125 149.636719 348.417969 L 150.15625 345.304688 C 152.226562 347.378906 155.332031 347.378906 156.367188 347.378906 C 162.0625 347.378906 162.582031 342.714844 162.582031 341.160156 C 162.582031 337.53125 160.511719 336.492188 157.921875 333.898438 L 154.296875 331.824219 C 151.191406 329.234375 149.636719 327.160156 149.636719 323.53125 C 149.636719 316.273438 156.886719 315.234375 158.441406 315.234375 C 161.027344 315.234375 163.101562 316.273438 164.136719 316.273438 L 163.617188 319.382812 C 162.0625 318.34375 160.511719 317.828125 158.441406 317.828125 C 156.367188 317.828125 152.746094 318.863281 152.746094 323.011719 C 152.746094 326.121094 154.296875 327.679688 156.367188 329.234375 L 159.476562 331.308594 C 164.136719 334.417969 165.171875 336.492188 165.171875 340.121094 C 165.171875 346.34375 161.546875 349.972656 156.367188 349.972656 "></path>
    <path style=" stroke:none;fill-rule:nonzero;fill:rgb(7.45098%,9.019608%,9.411765%);fill-opacity:1;" d="M 171.902344 315.753906 L 174.492188 315.753906 L 174.492188 348.9375 L 171.902344 348.9375 Z M 171.902344 315.753906 "></path>
    <path style=" stroke:none;fill-rule:nonzero;fill:rgb(7.45098%,9.019608%,9.411765%);fill-opacity:1;" d="M 188.472656 349.453125 L 183.292969 349.453125 L 183.292969 316.273438 L 186.917969 316.273438 C 197.792969 316.273438 203.488281 321.976562 203.488281 332.863281 C 203.488281 342.714844 198.828125 349.453125 188.472656 349.453125 M 188.472656 318.34375 L 185.882812 318.34375 L 185.882812 346.34375 L 188.988281 346.34375 C 197.273438 346.34375 200.378906 339.601562 200.378906 332.34375 C 200.378906 324.566406 197.273438 318.34375 188.472656 318.34375 "></path>
    <path style=" stroke:none;fill-rule:nonzero;fill:rgb(7.45098%,9.019608%,9.411765%);fill-opacity:1;" d="M 227.304688 349.453125 L 224.714844 340.121094 L 211.253906 340.121094 L 208.148438 349.453125 L 205.558594 349.453125 L 216.429688 316.273438 L 219.539062 316.273438 L 230.410156 349.453125 Z M 217.984375 318.863281 L 212.289062 337.53125 L 224.199219 337.53125 Z M 217.984375 318.863281 "></path>
    <path style=" stroke:none;fill-rule:nonzero;fill:rgb(7.45098%,9.019608%,9.411765%);fill-opacity:1;" d="M 240.25 349.453125 L 235.070312 349.453125 L 235.070312 316.273438 L 238.695312 316.273438 C 249.570312 316.273438 255.265625 321.976562 255.265625 332.863281 C 255.265625 342.714844 250.605469 349.453125 240.25 349.453125 M 240.25 318.34375 L 238.179688 318.34375 L 238.179688 346.34375 L 241.285156 346.34375 C 249.570312 346.34375 252.675781 339.601562 252.675781 332.34375 C 252.15625 324.566406 249.050781 318.34375 240.25 318.34375 "></path>
    <path style=" stroke:none;fill-rule:nonzero;fill:rgb(7.45098%,9.019608%,9.411765%);fill-opacity:1;" d="M 280.636719 334.417969 L 276.492188 334.417969 L 276.492188 348.9375 L 273.90625 348.9375 L 273.90625 315.753906 L 280.117188 315.753906 C 286.332031 315.753906 290.472656 318.863281 290.472656 325.085938 C 289.957031 330.789062 286.847656 334.417969 280.636719 334.417969 M 279.082031 318.34375 L 276.492188 318.34375 L 276.492188 331.824219 L 279.601562 331.824219 C 284.261719 331.824219 286.847656 330.269531 286.847656 325.085938 C 287.367188 319.902344 284.261719 318.34375 279.082031 318.34375 "></path>
    <path style=" stroke:none;fill-rule:nonzero;fill:rgb(7.45098%,9.019608%,9.411765%);fill-opacity:1;" d="M 311.703125 349.453125 L 308.59375 340.121094 L 295.132812 340.121094 L 292.027344 349.453125 L 289.957031 349.453125 L 300.828125 316.273438 L 303.9375 316.273438 L 314.808594 349.453125 Z M 302.382812 318.863281 L 296.6875 337.53125 L 308.59375 337.53125 Z M 302.382812 318.863281 "></path>
    <path style=" stroke:none;fill-rule:nonzero;fill:rgb(7.45098%,9.019608%,9.411765%);fill-opacity:1;" d="M 335.003906 349.453125 L 330.859375 338.046875 C 329.824219 335.972656 329.308594 333.898438 326.71875 333.898438 L 322.574219 333.898438 L 322.574219 349.453125 L 319.988281 349.453125 L 319.988281 316.273438 L 327.753906 316.273438 C 332.929688 316.273438 336.554688 319.382812 336.554688 325.085938 C 336.554688 329.234375 334.484375 332.34375 329.824219 333.382812 C 331.894531 333.898438 332.414062 334.417969 332.929688 336.492188 L 338.109375 350.492188 L 335.003906 350.492188 Z M 326.199219 318.34375 L 322.058594 318.34375 L 322.058594 330.789062 L 326.199219 330.789062 C 330.34375 330.789062 332.414062 328.714844 332.414062 324.050781 C 332.929688 320.417969 330.34375 318.34375 326.199219 318.34375 "></path>
    <path style=" stroke:none;fill-rule:nonzero;fill:rgb(7.45098%,9.019608%,9.411765%);fill-opacity:1;" d="M 361.410156 349.453125 L 358.820312 340.121094 L 345.359375 340.121094 L 342.25 349.453125 L 339.664062 349.453125 L 350.535156 316.273438 L 353.640625 316.273438 L 364.515625 349.453125 Z M 352.089844 318.863281 L 346.394531 337.53125 L 358.300781 337.53125 Z M 352.089844 318.863281 "></path>
    <path style=" stroke:none;fill-rule:nonzero;fill:rgb(7.45098%,9.019608%,9.411765%);fill-opacity:1;" d="M 380.566406 349.972656 C 370.730469 349.972656 366.585938 341.160156 366.585938 332.863281 C 366.585938 324.566406 371.246094 315.753906 380.566406 315.753906 C 382.636719 315.753906 385.226562 316.273438 387.296875 317.308594 L 386.78125 320.417969 C 385.226562 318.863281 382.121094 318.34375 380.050781 318.34375 C 372.28125 318.34375 369.175781 326.121094 369.175781 332.863281 C 369.175781 340.121094 372.28125 347.378906 380.566406 347.378906 C 382.121094 347.378906 383.671875 346.863281 385.226562 346.34375 L 385.226562 334.417969 L 379.53125 334.417969 L 379.53125 331.824219 L 388.332031 331.824219 L 388.332031 348.417969 C 385.746094 349.453125 383.15625 349.972656 380.566406 349.972656 "></path>
    <path style=" stroke:none;fill-rule:nonzero;fill:rgb(7.45098%,9.019608%,9.411765%);fill-opacity:1;" d="M 404.382812 349.972656 C 396.617188 349.972656 394.546875 344.269531 394.546875 337.53125 L 394.546875 316.273438 L 397.136719 316.273438 L 397.136719 337.011719 C 397.136719 341.675781 397.652344 346.863281 403.867188 346.863281 C 410.078125 346.863281 410.597656 341.675781 410.597656 337.011719 L 410.597656 315.753906 L 414.222656 315.753906 L 414.222656 337.011719 C 414.222656 343.75 412.152344 349.972656 404.382812 349.972656 "></path>
    <path style=" stroke:none;fill-rule:nonzero;fill:rgb(7.45098%,9.019608%,9.411765%);fill-opacity:1;" d="M 440.109375 349.453125 L 437.003906 340.121094 L 423.542969 340.121094 L 420.4375 349.453125 L 417.847656 349.453125 L 428.71875 316.273438 L 431.828125 316.273438 L 442.699219 349.453125 Z M 430.792969 318.863281 L 424.578125 337.53125 L 436.488281 337.53125 Z M 430.792969 318.863281 "></path>
    <path style=" stroke:none;fill-rule:nonzero;fill:rgb(7.45098%,9.019608%,9.411765%);fill-opacity:1;" d="M 453.054688 334.417969 L 453.054688 349.453125 L 450.464844 349.453125 L 450.464844 334.417969 L 442.183594 315.753906 L 444.769531 315.753906 L 452.019531 332.34375 L 458.75 315.753906 L 461.339844 315.753906 Z M 453.054688 334.417969 "></path>
    <path style=" stroke:none;fill-rule:nonzero;fill:rgb(7.45098%,9.019608%,9.411765%);fill-opacity:1;" d="M 474.800781 349.972656 C 465.480469 349.972656 463.410156 340.121094 463.410156 332.863281 C 463.410156 325.605469 466 315.753906 474.800781 315.753906 C 484.640625 315.753906 486.191406 325.605469 486.191406 332.863281 C 486.710938 340.121094 484.121094 349.972656 474.800781 349.972656 M 474.800781 317.828125 C 467.554688 317.828125 466.519531 326.640625 466.519531 332.34375 C 466.519531 338.046875 467.554688 346.863281 474.800781 346.863281 C 482.050781 346.863281 483.085938 338.046875 483.085938 332.34375 C 483.605469 326.640625 482.570312 317.828125 474.800781 317.828125 "></path>
    <path style=" stroke:none;fill-rule:nonzero;fill:rgb(7.45098%,9.019608%,9.411765%);fill-opacity:1;" d="M 522.957031 349.453125 L 520.367188 340.121094 L 506.90625 340.121094 L 503.796875 349.453125 L 501.207031 349.453125 L 512.082031 316.273438 L 515.1875 316.273438 L 526.0625 349.453125 Z M 513.636719 318.863281 L 507.421875 337.53125 L 519.332031 337.53125 Z M 513.636719 318.863281 "></path>
    <path style=" stroke:none;fill-rule:nonzero;fill:rgb(7.45098%,9.019608%,9.411765%);fill-opacity:1;" d="M 530.722656 349.453125 L 530.722656 315.753906 L 533.828125 315.753906 L 533.828125 346.863281 L 544.183594 346.863281 L 544.183594 349.453125 Z M 530.722656 349.453125 "></path>
    <path style=" stroke:none;fill-rule:nonzero;fill:rgb(7.45098%,9.019608%,9.411765%);fill-opacity:1;" d="M 549.363281 349.453125 L 549.363281 315.753906 L 563.34375 315.753906 L 563.34375 318.34375 L 552.46875 318.34375 L 552.46875 330.789062 L 562.824219 330.789062 L 562.824219 333.382812 L 552.46875 333.382812 L 552.46875 346.863281 L 563.859375 346.863281 L 563.859375 349.453125 Z M 549.363281 349.453125 "></path>
    <path style=" stroke:none;fill-rule:nonzero;fill:rgb(7.45098%,9.019608%,9.411765%);fill-opacity:1;" d="M 594.925781 349.453125 L 594.925781 318.34375 L 585.605469 349.453125 L 583.019531 349.453125 L 573.179688 318.34375 L 573.179688 349.453125 L 570.589844 349.453125 L 570.589844 315.753906 L 575.25 315.753906 L 584.570312 345.824219 L 593.375 315.753906 L 598.035156 315.753906 L 598.035156 349.453125 Z M 594.925781 349.453125 "></path>
    <path style=" stroke:none;fill-rule:nonzero;fill:rgb(7.45098%,9.019608%,9.411765%);fill-opacity:1;" d="M 624.441406 349.453125 L 621.851562 340.121094 L 608.390625 340.121094 L 605.28125 349.453125 L 602.691406 349.453125 L 613.566406 316.273438 L 616.671875 316.273438 L 627.546875 349.453125 Z M 615.121094 318.863281 L 609.425781 337.53125 L 621.332031 337.53125 Z M 615.121094 318.863281 "></path>
    <path style=" stroke:none;fill-rule:nonzero;fill:rgb(7.45098%,9.019608%,9.411765%);fill-opacity:1;" d="M 648.777344 349.453125 L 635.3125 319.382812 L 635.3125 349.453125 L 632.722656 349.453125 L 632.722656 315.753906 L 636.347656 315.753906 L 650.328125 345.824219 L 650.328125 315.753906 L 652.917969 315.753906 L 652.917969 349.453125 Z M 648.777344 349.453125 "></path>
    <path style=" stroke:none;fill-rule:nonzero;fill:rgb(7.45098%,9.019608%,9.411765%);fill-opacity:1;" d="M 679.84375 349.453125 L 676.734375 340.121094 L 663.273438 340.121094 L 660.167969 349.453125 L 657.578125 349.453125 L 668.449219 316.273438 L 671.558594 316.273438 L 682.429688 349.453125 Z M 670.003906 318.863281 L 664.308594 337.53125 L 676.21875 337.53125 Z M 670.003906 318.863281 "></path>
    <path style=" stroke:none;fill-rule:nonzero;fill:rgb(7.45098%,9.019608%,9.411765%);fill-opacity:1;" d="M 28.996094 399.226562 L 28.996094 386.265625 L 20.710938 386.265625 L 20.710938 399.226562 L 15.015625 399.226562 L 15.015625 369.675781 L 20.710938 369.675781 L 20.710938 381.601562 L 28.996094 381.601562 L 28.996094 369.675781 L 34.171875 369.675781 L 34.171875 399.226562 Z M 28.996094 399.226562 "></path>
    <path style=" stroke:none;fill-rule:nonzero;fill:rgb(7.45098%,9.019608%,9.411765%);fill-opacity:1;" d="M 51.777344 399.226562 L 51.777344 369.675781 L 66.792969 369.675781 L 66.792969 373.824219 L 56.957031 373.824219 L 56.957031 381.601562 L 66.277344 381.601562 L 66.277344 385.746094 L 56.957031 385.746094 L 56.957031 394.5625 L 67.3125 394.5625 L 67.3125 399.226562 Z M 51.777344 399.226562 "></path>
    <path style=" stroke:none;fill-rule:nonzero;fill:rgb(7.45098%,9.019608%,9.411765%);fill-opacity:1;" d="M 82.84375 369.675781 L 88.023438 369.675781 L 88.023438 398.710938 L 82.84375 398.710938 Z M 82.84375 369.675781 "></path>
    <path style=" stroke:none;fill-rule:nonzero;fill:rgb(7.45098%,9.019608%,9.411765%);fill-opacity:1;" d="M 113.394531 399.226562 L 105.625 399.226562 L 105.625 370.195312 L 112.875 370.195312 C 122.195312 370.195312 126.855469 375.898438 126.855469 384.710938 C 126.335938 393.007812 122.195312 399.226562 113.394531 399.226562 M 112.875 373.824219 L 111.320312 373.824219 L 111.320312 394.5625 L 113.394531 394.5625 C 119.605469 394.5625 121.160156 389.894531 121.160156 384.191406 C 121.160156 378.488281 119.089844 373.824219 112.875 373.824219 "></path>
    <path style=" stroke:none;fill-rule:nonzero;fill:rgb(7.45098%,9.019608%,9.411765%);fill-opacity:1;" d="M 142.390625 399.226562 L 142.390625 369.675781 L 157.921875 369.675781 L 157.921875 373.824219 L 148.085938 373.824219 L 148.085938 381.601562 L 157.40625 381.601562 L 157.40625 385.746094 L 148.085938 385.746094 L 148.085938 394.5625 L 158.441406 394.5625 L 158.441406 399.226562 Z M 142.390625 399.226562 "></path>
    <path style=" stroke:none;fill-rule:nonzero;fill:rgb(7.45098%,9.019608%,9.411765%);fill-opacity:1;" d="M 173.972656 399.226562 L 173.972656 369.675781 L 179.667969 369.675781 L 179.667969 394.5625 L 188.472656 394.5625 L 188.472656 399.226562 Z M 173.972656 399.226562 "></path>
    <path style=" stroke:none;fill-rule:nonzero;fill:rgb(7.45098%,9.019608%,9.411765%);fill-opacity:1;" d="M 212.289062 399.226562 L 203.488281 399.226562 L 203.488281 370.195312 L 212.808594 370.195312 C 217.464844 370.195312 221.089844 372.785156 221.089844 377.453125 C 221.089844 381.082031 219.019531 383.15625 215.914062 384.191406 C 219.019531 384.710938 221.609375 387.304688 221.609375 391.449219 C 221.609375 396.117188 217.464844 399.226562 212.289062 399.226562 M 211.253906 373.824219 L 208.664062 373.824219 L 208.664062 382.117188 L 211.253906 382.117188 C 213.84375 382.117188 215.394531 380.5625 215.394531 377.96875 C 215.394531 374.859375 213.84375 373.824219 211.253906 373.824219 M 211.769531 385.746094 L 208.664062 385.746094 L 208.664062 395.082031 L 211.769531 395.082031 C 214.878906 395.082031 216.429688 393.523438 216.429688 390.414062 C 215.914062 387.820312 214.359375 385.746094 211.769531 385.746094 "></path>
    <path style=" stroke:none;fill-rule:nonzero;fill:rgb(7.45098%,9.019608%,9.411765%);fill-opacity:1;" d="M 237.660156 399.226562 L 237.660156 369.675781 L 252.675781 369.675781 L 252.675781 373.824219 L 242.835938 373.824219 L 242.835938 381.601562 L 252.15625 381.601562 L 252.15625 385.746094 L 242.835938 385.746094 L 242.835938 394.5625 L 253.191406 394.5625 L 253.191406 399.226562 Z M 237.660156 399.226562 "></path>
    <path style=" stroke:none;fill-rule:nonzero;fill:rgb(7.45098%,9.019608%,9.411765%);fill-opacity:1;" d="M 282.1875 399.226562 L 279.601562 389.894531 C 279.082031 387.820312 278.046875 386.785156 276.492188 386.785156 L 274.421875 386.785156 L 274.421875 399.226562 L 269.246094 399.226562 L 269.246094 370.195312 L 278.5625 370.195312 C 283.222656 370.195312 286.847656 372.785156 286.847656 377.96875 C 286.847656 381.601562 284.777344 384.191406 281.152344 385.230469 C 283.222656 385.746094 283.742188 386.785156 284.777344 389.378906 L 288.402344 400.265625 L 282.1875 400.265625 Z M 276.492188 373.824219 L 273.90625 373.824219 L 273.90625 382.636719 L 276.492188 382.636719 C 279.601562 382.636719 281.152344 381.082031 281.152344 377.96875 C 281.152344 374.859375 279.601562 373.824219 276.492188 373.824219 "></path>
    <path style=" stroke:none;fill-rule:nonzero;fill:rgb(7.45098%,9.019608%,9.411765%);fill-opacity:1;" d="M 314.808594 399.226562 C 306.007812 399.226562 301.863281 392.488281 301.863281 384.191406 C 301.863281 375.898438 307.042969 369.15625 315.84375 369.15625 C 318.433594 369.15625 321.023438 369.675781 322.574219 370.710938 L 322.058594 375.378906 C 320.503906 374.339844 318.433594 373.304688 315.84375 373.304688 C 310.148438 373.304688 307.042969 378.488281 307.042969 384.191406 C 307.042969 389.378906 309.113281 395.082031 315.328125 395.082031 C 316.363281 395.082031 317.398438 395.082031 317.914062 394.5625 L 317.914062 386.265625 L 313.773438 386.265625 L 313.773438 382.117188 L 322.574219 382.117188 L 322.574219 397.15625 C 321.023438 399.226562 317.398438 399.226562 314.808594 399.226562 "></path>
    <path style=" stroke:none;fill-rule:nonzero;fill:rgb(7.45098%,9.019608%,9.411765%);fill-opacity:1;" d="M 370.210938 383.15625 L 380.050781 383.15625 L 380.050781 387.304688 L 370.210938 387.304688 Z M 370.210938 383.15625 "></path>
    <path style=" stroke:none;fill-rule:nonzero;fill:rgb(7.45098%,9.019608%,9.411765%);fill-opacity:1;" d="M 443.21875 399.226562 L 441.148438 391.96875 L 431.308594 391.96875 L 429.753906 399.226562 L 424.578125 399.226562 L 433.898438 370.195312 L 440.109375 370.195312 L 449.429688 399.226562 Z M 436.488281 374.339844 L 432.863281 387.820312 L 440.628906 387.820312 Z M 436.488281 374.339844 "></path>
    <path style=" stroke:none;fill-rule:nonzero;fill:rgb(7.45098%,9.019608%,9.411765%);fill-opacity:1;" d="M 469.105469 399.226562 C 467.035156 399.226562 463.929688 398.710938 461.859375 398.191406 L 462.375 393.523438 C 464.445312 395.082031 467.035156 395.597656 468.589844 395.597656 C 472.214844 395.597656 473.25 393.007812 473.25 391.449219 C 473.25 388.859375 471.695312 387.820312 469.625 386.785156 L 467.035156 385.230469 C 463.410156 383.15625 462.375 381.082031 462.375 377.453125 C 462.375 371.75 467.554688 369.675781 471.695312 369.675781 C 474.285156 369.675781 476.355469 370.195312 477.910156 370.710938 L 477.390625 375.378906 C 475.835938 374.339844 473.765625 373.824219 472.214844 373.824219 C 470.140625 373.824219 468.070312 374.859375 468.070312 377.453125 C 468.070312 379.527344 469.105469 380.5625 471.179688 381.601562 L 473.765625 383.15625 C 477.390625 385.230469 479.460938 386.785156 479.460938 391.449219 C 478.425781 396.117188 474.800781 399.226562 469.105469 399.226562 "></path>
    <path style=" stroke:none;fill-rule:nonzero;fill:rgb(7.45098%,9.019608%,9.411765%);fill-opacity:1;" d="M 503.796875 399.226562 C 496.550781 399.226562 493.960938 394.5625 493.960938 388.339844 L 493.960938 369.675781 L 499.136719 369.675781 L 499.136719 388.859375 C 499.136719 391.96875 499.65625 395.082031 503.28125 395.082031 C 506.90625 395.082031 507.421875 391.96875 507.421875 388.859375 L 507.421875 369.675781 L 512.601562 369.675781 L 512.601562 388.339844 C 513.636719 394.5625 510.527344 399.226562 503.796875 399.226562 "></path>
    <path style=" stroke:none;fill-rule:nonzero;fill:rgb(7.45098%,9.019608%,9.411765%);fill-opacity:1;" d="M 544.183594 399.226562 L 535.382812 375.898438 L 535.382812 399.226562 L 530.722656 399.226562 L 530.722656 369.675781 L 537.453125 369.675781 L 546.253906 393.007812 L 546.253906 369.675781 L 551.433594 369.675781 L 551.433594 399.226562 Z M 544.183594 399.226562 "></path>
    <path style=" stroke:none;fill-rule:nonzero;fill:rgb(7.45098%,9.019608%,9.411765%);fill-opacity:1;" d="M 579.910156 399.226562 C 571.625 399.226562 566.964844 392.488281 566.964844 384.191406 C 566.964844 374.859375 572.664062 369.15625 579.394531 369.15625 C 582.5 369.15625 584.570312 370.195312 585.605469 370.195312 L 585.605469 374.859375 C 584.570312 373.824219 583.019531 373.304688 580.429688 373.304688 C 575.25 373.304688 572.664062 377.96875 572.664062 384.191406 C 572.664062 389.894531 575.25 395.082031 580.429688 395.082031 C 583.019531 395.082031 584.570312 394.042969 585.605469 393.523438 L 586.125 398.191406 C 584.570312 398.710938 583.019531 399.226562 579.910156 399.226562 "></path>
    <path style=" stroke:none;fill-rule:nonzero;fill:rgb(7.45098%,9.019608%,9.411765%);fill-opacity:1;" d="M 601.65625 369.675781 L 606.835938 369.675781 L 606.835938 398.710938 L 601.65625 398.710938 Z M 601.65625 369.675781 "></path>
    <path style=" stroke:none;fill-rule:nonzero;fill:rgb(7.45098%,9.019608%,9.411765%);fill-opacity:1;" d="M 634.277344 399.226562 C 625.476562 399.226562 622.886719 391.449219 622.886719 384.191406 C 622.886719 376.933594 625.992188 369.15625 634.277344 369.15625 C 643.078125 369.15625 645.667969 376.933594 645.667969 384.191406 C 645.667969 391.449219 642.5625 399.226562 634.277344 399.226562 M 634.277344 373.304688 C 629.101562 373.304688 628.582031 380.042969 628.582031 384.191406 C 628.582031 389.378906 629.617188 395.082031 634.277344 395.082031 C 639.457031 395.082031 639.972656 388.339844 639.972656 384.191406 C 640.492188 379.527344 639.972656 373.304688 634.277344 373.304688 M 635.832031 367.082031 L 632.722656 367.082031 L 635.832031 360.859375 L 639.972656 360.859375 Z M 635.832031 367.082031 "></path>
    <path style=" stroke:none;fill-rule:nonzero;fill:rgb(7.45098%,9.019608%,9.411765%);fill-opacity:1;" d="M 675.699219 399.226562 L 666.378906 375.898438 L 666.378906 399.226562 L 661.71875 399.226562 L 661.71875 369.675781 L 668.96875 369.675781 L 677.769531 393.007812 L 677.769531 369.675781 L 682.429688 369.675781 L 682.429688 399.226562 Z M 675.699219 399.226562 "></path>
    <path style=" stroke:none;fill-rule:nonzero;fill:rgb(100%,100%,100%);fill-opacity:1;" d="M 15.015625 432.929688 L 348.464844 432.929688 L 348.464844 448.484375 L 15.015625 448.484375 Z M 15.015625 432.929688 "></path>
    <path style=" stroke:none;fill-rule:nonzero;fill:rgb(0%,20%,63.137255%);fill-opacity:1;" d="M 15.015625 448.484375 L 348.464844 448.484375 L 348.464844 464.039062 L 15.015625 464.039062 Z M 15.015625 448.484375 "></path>
    <path style=" stroke:none;fill-rule:nonzero;fill:rgb(94.901961%,80.392157%,0%);fill-opacity:1;" d="M 348.464844 448.484375 L 682.429688 448.484375 L 682.429688 464.039062 L 348.464844 464.039062 Z M 348.464844 448.484375 "></path>
    <path style=" stroke:none;fill-rule:nonzero;fill:rgb(88.235294%,14.509804%,10.588235%);fill-opacity:1;" d="M 348.464844 432.929688 L 682.429688 432.929688 L 682.429688 448.484375 L 348.464844 448.484375 Z M 348.464844 432.929688 "></path>
    <path style=" stroke:none;fill-rule:nonzero;fill:rgb(80.784314%,5.490196%,17.647059%);fill-opacity:1;" d="M 15.015625 416.855469 L 348.464844 416.855469 L 348.464844 432.929688 L 15.015625 432.929688 Z M 15.015625 416.855469 "></path>
    <path style=" stroke:none;fill-rule:nonzero;fill:rgb(7.45098%,9.019608%,9.411765%);fill-opacity:1;" d="M 348.464844 416.855469 L 682.429688 416.855469 L 682.429688 432.929688 L 348.464844 432.929688 Z M 348.464844 416.855469 "></path>
  </g>
</svg>
